G75*
G70*
%OFA0B0*%
%FSAX24Y24*%
%IPPOS*%
%LPD*%
%AMOC8*
5,1,8,0,0,1.08239X$1,22.5*
*%
%ADD10C,0.0730*%
%ADD11C,0.0809*%
%ADD12R,0.0946X0.0809*%
%ADD13R,0.0809X0.0946*%
%ADD14R,0.0525X0.0513*%
%ADD15R,0.0513X0.0525*%
%ADD16R,0.0800X0.0800*%
%ADD17R,0.0810X0.0730*%
%ADD18OC8,0.0700*%
%ADD19O,0.0700X0.1300*%
%ADD20O,0.1300X0.0700*%
%ADD21C,0.2100*%
%ADD22C,0.0544*%
%ADD23R,0.0730X0.0612*%
%ADD24R,0.0612X0.0730*%
%ADD25R,0.0533X0.0494*%
%ADD26O,0.1140X0.0620*%
%ADD27C,0.0769*%
%ADD28C,0.0540*%
%ADD29C,0.1104*%
%ADD30C,0.1524*%
%ADD31OC8,0.0760*%
%ADD32O,0.1870X0.0985*%
%ADD33O,0.0800X0.1500*%
%ADD34O,0.0660X0.1220*%
%ADD35O,0.1220X0.0660*%
%ADD36C,0.0420*%
%ADD37C,0.0500*%
%ADD38C,0.0580*%
%ADD39C,0.3600*%
%ADD40C,0.0410*%
%ADD41C,0.0700*%
%ADD42C,0.5100*%
D10*
X051505Y056856D03*
D11*
X051505Y055084D03*
D12*
X063624Y050506D03*
X064785Y050506D03*
X062435Y038206D03*
X061274Y038206D03*
X064074Y027406D03*
X065235Y027406D03*
D13*
X065305Y025087D03*
X065305Y023925D03*
X064905Y046975D03*
X064905Y048137D03*
D14*
X042905Y028901D03*
X042905Y028212D03*
X041905Y028212D03*
X041905Y028901D03*
X041055Y028901D03*
X041055Y028212D03*
X039705Y028212D03*
X039705Y028901D03*
X040355Y027301D03*
X040355Y026612D03*
X036555Y030562D03*
X036555Y031251D03*
X037105Y033912D03*
X037105Y034601D03*
X040305Y034612D03*
X040305Y035301D03*
X041305Y035301D03*
X042405Y035301D03*
X042405Y034612D03*
X041305Y034612D03*
X041255Y036712D03*
X041255Y037401D03*
X045355Y025451D03*
X045355Y024762D03*
D15*
X044249Y030756D03*
X045260Y031256D03*
X045949Y031256D03*
X044249Y031756D03*
X043560Y031756D03*
X043560Y033156D03*
X044249Y033156D03*
X043560Y030756D03*
X037849Y031256D03*
X037160Y031256D03*
X037160Y029756D03*
X037849Y029756D03*
X058110Y038106D03*
X058799Y038106D03*
X008799Y035306D03*
X008110Y035306D03*
D16*
X064005Y026056D03*
X064005Y025056D03*
X064005Y024056D03*
X063605Y047156D03*
X063605Y048156D03*
X063605Y049156D03*
D17*
X044455Y027616D03*
X044455Y026496D03*
X007105Y036196D03*
X007105Y037316D03*
D18*
X009305Y037356D03*
X015205Y037456D03*
X016205Y037456D03*
X017205Y037456D03*
X017205Y036456D03*
X016205Y036456D03*
X015205Y036456D03*
X015405Y043256D03*
X025855Y040256D03*
X026855Y040256D03*
X026855Y039256D03*
X026855Y038256D03*
X025855Y038256D03*
X025855Y039256D03*
X025855Y037256D03*
X026855Y037256D03*
X026855Y036256D03*
X026855Y035256D03*
X025855Y035256D03*
X025855Y036256D03*
X025855Y034256D03*
X026855Y034256D03*
X026855Y033256D03*
X025855Y033256D03*
X036005Y035456D03*
X037205Y043756D03*
X043805Y044256D03*
X044105Y046156D03*
X045105Y046156D03*
X046105Y046156D03*
X047105Y046156D03*
X048105Y046156D03*
X049105Y046156D03*
X050105Y046156D03*
X050105Y047156D03*
X049105Y047156D03*
X048105Y047156D03*
X047105Y047156D03*
X046105Y047156D03*
X045105Y047156D03*
X044105Y047156D03*
X043765Y053856D03*
X042685Y053856D03*
X041605Y053856D03*
X040525Y053856D03*
X039445Y053856D03*
X039985Y054856D03*
X041065Y054856D03*
X042145Y054856D03*
X043225Y054856D03*
X029725Y054856D03*
X028645Y054856D03*
X027565Y054856D03*
X026485Y054856D03*
X027025Y053856D03*
X028105Y053856D03*
X029185Y053856D03*
X030265Y053856D03*
X025945Y053856D03*
X045705Y034856D03*
X048905Y032106D03*
X052805Y028156D03*
X053805Y028156D03*
X053805Y027156D03*
X052805Y027156D03*
X052805Y026156D03*
X053805Y026156D03*
X053805Y025156D03*
X053805Y024156D03*
X052805Y024156D03*
X052805Y025156D03*
X052805Y023156D03*
X053805Y023156D03*
X053805Y022156D03*
X053805Y021156D03*
X052805Y021156D03*
X052805Y022156D03*
X052355Y010456D03*
X052355Y009456D03*
X051355Y009456D03*
X051355Y010456D03*
X050355Y010456D03*
X050355Y009456D03*
X049355Y009456D03*
X049355Y010456D03*
X048355Y010456D03*
X048355Y009456D03*
X047355Y009456D03*
X047355Y010456D03*
X046355Y010456D03*
X046355Y009456D03*
X045355Y009456D03*
X045355Y010456D03*
X044355Y010456D03*
X044355Y009456D03*
X041355Y009456D03*
X041355Y010456D03*
X040355Y010456D03*
X040355Y009456D03*
X039355Y009456D03*
X039355Y010456D03*
X038355Y010456D03*
X038355Y009456D03*
X037355Y009456D03*
X037355Y010456D03*
X036355Y010456D03*
X036355Y009456D03*
X035355Y009456D03*
X035355Y010456D03*
X053355Y010456D03*
X054355Y010456D03*
X054355Y009456D03*
X053355Y009456D03*
X055355Y009456D03*
X056355Y009456D03*
X057355Y009456D03*
X057355Y010456D03*
X056355Y010456D03*
X055355Y010456D03*
X058355Y010456D03*
X059355Y010456D03*
X059355Y009456D03*
X058355Y009456D03*
D19*
X048355Y007056D03*
X047355Y007056D03*
X046355Y007056D03*
X045355Y007056D03*
X044355Y007056D03*
X028255Y009256D03*
X027255Y009256D03*
X021205Y009256D03*
X020205Y009256D03*
X014255Y009256D03*
X013255Y009256D03*
X007105Y009256D03*
X006105Y009256D03*
X040205Y046156D03*
X041205Y046156D03*
X042205Y046156D03*
X014355Y050156D03*
X013355Y050156D03*
X012355Y050156D03*
X011355Y050156D03*
D20*
X004505Y039856D03*
X004505Y038856D03*
X004505Y037856D03*
X005355Y026306D03*
X005355Y025306D03*
X005355Y024306D03*
X007905Y024306D03*
X007905Y025306D03*
X007905Y026306D03*
X012505Y026306D03*
X012505Y025306D03*
X012505Y024306D03*
X015055Y024306D03*
X015055Y025306D03*
X015055Y026306D03*
X019455Y026306D03*
X019455Y025306D03*
X019455Y024306D03*
X021955Y024306D03*
X021955Y025306D03*
X021955Y026306D03*
X026505Y026306D03*
X026505Y025306D03*
X026505Y024306D03*
X029005Y024306D03*
X029005Y025306D03*
X029005Y026306D03*
X034605Y037456D03*
X034605Y038456D03*
X037305Y038456D03*
X037305Y037456D03*
X029005Y043056D03*
X029005Y044056D03*
X029005Y047456D03*
X029005Y048456D03*
X018555Y039106D03*
X018555Y038106D03*
D21*
X023175Y054356D03*
X033035Y054356D03*
X036675Y054356D03*
X046535Y054356D03*
D22*
X043361Y026606D03*
X042849Y026606D03*
D23*
X038905Y028862D03*
X038905Y029650D03*
X043605Y034862D03*
X043605Y035650D03*
X013505Y041862D03*
X013505Y042650D03*
D24*
X010448Y038906D03*
X009661Y038906D03*
X045711Y027606D03*
X046498Y027606D03*
D25*
X017205Y034871D03*
X017205Y035541D03*
X016205Y035541D03*
X016205Y034871D03*
X015205Y034871D03*
X015205Y035541D03*
D26*
X023005Y043856D03*
X023005Y044856D03*
X023005Y045856D03*
X023005Y046856D03*
X026005Y046856D03*
X026005Y045856D03*
X026005Y044856D03*
X026005Y043856D03*
D27*
X031355Y006190D03*
X031355Y003434D03*
X016555Y003434D03*
X016555Y006190D03*
D28*
X014255Y012056D03*
X013255Y013056D03*
X014255Y014056D03*
X020205Y014656D03*
X021205Y015656D03*
X020205Y016656D03*
X027255Y016656D03*
X028255Y015656D03*
X027255Y014656D03*
X007105Y014056D03*
X006105Y013056D03*
X007105Y012056D03*
D29*
X008605Y004956D03*
X024305Y004956D03*
D30*
X024305Y003184D03*
X026273Y004956D03*
X022336Y004956D03*
X010573Y004956D03*
X008605Y003184D03*
X006636Y004956D03*
D31*
X062005Y039456D03*
X064005Y039456D03*
X064005Y041456D03*
X062005Y041456D03*
D32*
X062805Y056906D03*
X056805Y056906D03*
D33*
X058805Y054156D03*
X062805Y054156D03*
D34*
X053855Y048156D03*
X052855Y048156D03*
X056005Y020056D03*
X057005Y020056D03*
D35*
X052105Y031456D03*
X052105Y032456D03*
D36*
X054405Y032656D03*
X055005Y032656D03*
X055605Y032656D03*
X056205Y032656D03*
X056805Y032656D03*
X057405Y032656D03*
X058005Y032656D03*
X058605Y032656D03*
X059205Y032656D03*
X059805Y032656D03*
X060405Y032656D03*
X061005Y032656D03*
X061605Y032656D03*
X062205Y032656D03*
X062805Y032656D03*
X063405Y032656D03*
X064005Y032656D03*
X064005Y032056D03*
X064005Y031456D03*
X064005Y030856D03*
X064005Y030256D03*
X063405Y030256D03*
X063405Y030856D03*
X063405Y031456D03*
X063405Y032056D03*
X062805Y032056D03*
X062805Y031456D03*
X062805Y030856D03*
X062805Y030256D03*
X062205Y030256D03*
X062205Y030856D03*
X062205Y031456D03*
X062205Y032056D03*
X061605Y032056D03*
X061605Y031456D03*
X061605Y030856D03*
X061605Y030256D03*
X061005Y030256D03*
X061005Y030856D03*
X061005Y031456D03*
X061005Y032056D03*
X060405Y032056D03*
X060405Y031456D03*
X060405Y030856D03*
X060405Y030256D03*
X059805Y030256D03*
X059805Y030856D03*
X059805Y031456D03*
X059805Y032056D03*
X059205Y032056D03*
X059205Y031456D03*
X059205Y030856D03*
X059205Y030256D03*
X058605Y030256D03*
X058605Y030856D03*
X058605Y031456D03*
X058605Y032056D03*
X058005Y032056D03*
X058005Y031456D03*
X058005Y030856D03*
X058005Y030256D03*
X057405Y030256D03*
X057405Y030856D03*
X057405Y031456D03*
X057405Y032056D03*
X056805Y032056D03*
X056805Y031456D03*
X056805Y030856D03*
X056805Y030256D03*
X056205Y030256D03*
X056205Y030856D03*
X056205Y031456D03*
X056205Y032056D03*
X055605Y032056D03*
X055605Y031456D03*
X055605Y030856D03*
X055605Y030256D03*
X055005Y030256D03*
X055005Y030856D03*
X055005Y031456D03*
X055005Y032056D03*
X054405Y032056D03*
X054405Y031456D03*
X054405Y030856D03*
X054405Y030256D03*
X055405Y027756D03*
X056005Y027756D03*
X056605Y027756D03*
X057205Y027756D03*
X057805Y027756D03*
X058405Y027756D03*
X059005Y027756D03*
X059605Y027756D03*
X060205Y027756D03*
X060805Y027756D03*
X061405Y027756D03*
X062005Y027756D03*
X062605Y027756D03*
X062605Y027156D03*
X062605Y026556D03*
X062605Y025956D03*
X062605Y025356D03*
X062605Y024756D03*
X062605Y024156D03*
X062605Y023556D03*
X062605Y022956D03*
X062605Y022356D03*
X062005Y022356D03*
X062005Y022956D03*
X062005Y023556D03*
X062005Y024156D03*
X062005Y024756D03*
X062005Y025356D03*
X062005Y025956D03*
X062005Y026556D03*
X062005Y027156D03*
X061405Y027156D03*
X061405Y026556D03*
X061405Y025956D03*
X061405Y025356D03*
X061405Y024756D03*
X061405Y024156D03*
X061405Y023556D03*
X061405Y022956D03*
X061405Y022356D03*
X060805Y022356D03*
X060205Y022356D03*
X060205Y022956D03*
X060805Y022956D03*
X060805Y023556D03*
X060205Y023556D03*
X060205Y024156D03*
X060805Y024156D03*
X060805Y024756D03*
X060205Y024756D03*
X060205Y025356D03*
X060805Y025356D03*
X060805Y025956D03*
X060205Y025956D03*
X060205Y026556D03*
X060805Y026556D03*
X060805Y027156D03*
X060205Y027156D03*
X059605Y027156D03*
X059605Y026556D03*
X059605Y025956D03*
X059605Y025356D03*
X059605Y024756D03*
X059605Y024156D03*
X059605Y023556D03*
X059605Y022956D03*
X059605Y022356D03*
X059005Y022356D03*
X059005Y022956D03*
X059005Y023556D03*
X059005Y024156D03*
X059005Y024756D03*
X059005Y025356D03*
X059005Y025956D03*
X059005Y026556D03*
X059005Y027156D03*
X058405Y027156D03*
X058405Y026556D03*
X058405Y025956D03*
X058405Y025356D03*
X058405Y024756D03*
X058405Y024156D03*
X058405Y023556D03*
X058405Y022956D03*
X058405Y022356D03*
X057805Y022356D03*
X057805Y022956D03*
X057805Y023556D03*
X057805Y024156D03*
X057805Y024756D03*
X057805Y025356D03*
X057805Y025956D03*
X057805Y026556D03*
X057805Y027156D03*
X057205Y027156D03*
X057205Y026556D03*
X057205Y025956D03*
X057205Y025356D03*
X057205Y024756D03*
X057205Y024156D03*
X057205Y023556D03*
X057205Y022956D03*
X057205Y022356D03*
X056605Y022356D03*
X056005Y022356D03*
X056005Y022956D03*
X056605Y022956D03*
X056605Y023556D03*
X056005Y023556D03*
X056005Y024156D03*
X056605Y024156D03*
X056605Y024756D03*
X056005Y024756D03*
X056005Y025356D03*
X056605Y025356D03*
X056605Y025956D03*
X056005Y025956D03*
X056005Y026556D03*
X056605Y026556D03*
X056605Y027156D03*
X056005Y027156D03*
X055405Y027156D03*
X055405Y026556D03*
X055405Y025956D03*
X055405Y025356D03*
X055405Y024756D03*
X055405Y024156D03*
X055405Y023556D03*
X055405Y022956D03*
X055405Y022356D03*
X056255Y019106D03*
X060255Y015406D03*
X055755Y013356D03*
X054855Y011156D03*
X049355Y020056D03*
X048505Y020456D03*
X042355Y024906D03*
X041905Y024906D03*
X041105Y027056D03*
X040905Y027506D03*
X041705Y027506D03*
X042155Y027506D03*
X039605Y029456D03*
X038405Y030056D03*
X038405Y031256D03*
X036555Y032106D03*
X036105Y031956D03*
X036155Y032406D03*
X034205Y032106D03*
X034205Y031656D03*
X033605Y032006D03*
X032955Y032506D03*
X032355Y032956D03*
X032055Y031956D03*
X032055Y030906D03*
X032055Y029956D03*
X032055Y029056D03*
X032055Y028356D03*
X032355Y027506D03*
X032955Y027506D03*
X033605Y027506D03*
X034205Y027506D03*
X035305Y028556D03*
X036655Y029256D03*
X039205Y027606D03*
X043005Y031856D03*
X043005Y033156D03*
X042205Y034056D03*
X041205Y034056D03*
X040405Y034056D03*
X039955Y036056D03*
X039455Y036056D03*
X041105Y036056D03*
X042055Y036706D03*
X042055Y037156D03*
X039055Y038756D03*
X037955Y040056D03*
X039205Y041306D03*
X034355Y042956D03*
X033605Y041256D03*
X032855Y041356D03*
X032355Y041656D03*
X031905Y041656D03*
X030755Y041656D03*
X030755Y040306D03*
X031905Y040306D03*
X033605Y039956D03*
X032355Y042506D03*
X031755Y045006D03*
X024855Y039906D03*
X024155Y039406D03*
X023255Y039456D03*
X024155Y041006D03*
X023255Y041906D03*
X020605Y040256D03*
X020005Y039856D03*
X016055Y041656D03*
X015855Y040956D03*
X013405Y039706D03*
X015155Y038506D03*
X014605Y037956D03*
X013805Y037856D03*
X013805Y036656D03*
X012055Y037306D03*
X011205Y039856D03*
X011605Y041456D03*
X012405Y041456D03*
X012705Y042906D03*
X011905Y042906D03*
X013205Y043306D03*
X009355Y040556D03*
X008905Y040756D03*
X008405Y039356D03*
X010755Y022206D03*
X019955Y022256D03*
X027005Y022256D03*
X028455Y017256D03*
X034705Y018706D03*
X034705Y019606D03*
X034205Y030756D03*
X034205Y033056D03*
X034205Y033956D03*
X036555Y034356D03*
X044405Y034006D03*
X046255Y032806D03*
X045205Y031956D03*
X045205Y030456D03*
X054405Y033256D03*
X055005Y033256D03*
X055605Y033256D03*
X056205Y033256D03*
X056805Y033256D03*
X057405Y033256D03*
X058005Y033256D03*
X058605Y033256D03*
X059205Y033256D03*
X059805Y033256D03*
X060405Y033256D03*
X061005Y033256D03*
X061605Y033256D03*
X062205Y033256D03*
X062805Y033256D03*
X063405Y033256D03*
X064005Y033256D03*
X064005Y033856D03*
X064005Y034456D03*
X063405Y034456D03*
X063405Y033856D03*
X062805Y033856D03*
X062805Y034456D03*
X062205Y034456D03*
X062205Y033856D03*
X061605Y033856D03*
X061605Y034456D03*
X061005Y034456D03*
X061005Y033856D03*
X060405Y033856D03*
X060405Y034456D03*
X059805Y034456D03*
X059805Y033856D03*
X059205Y033856D03*
X059205Y034456D03*
X058605Y034456D03*
X058605Y033856D03*
X058005Y033856D03*
X058005Y034456D03*
X057405Y034456D03*
X057405Y033856D03*
X056805Y033856D03*
X056805Y034456D03*
X056205Y034456D03*
X056205Y033856D03*
X055605Y033856D03*
X055605Y034456D03*
X055005Y034456D03*
X055005Y033856D03*
X054405Y033856D03*
X054405Y034456D03*
X058555Y042506D03*
X054055Y045956D03*
X051105Y047806D03*
X051005Y048956D03*
X048005Y044906D03*
X041255Y047656D03*
X041255Y051256D03*
D37*
X044405Y049506D03*
X049505Y048256D03*
X049205Y042156D03*
X055155Y039906D03*
X055705Y036156D03*
X059405Y037856D03*
X059905Y037856D03*
X059905Y038406D03*
X059405Y038406D03*
X057605Y043156D03*
X056305Y043206D03*
X047705Y034306D03*
X044355Y037256D03*
X043555Y027506D03*
X043555Y025656D03*
X041105Y026556D03*
X036105Y021156D03*
X030705Y019806D03*
X029855Y020356D03*
X030405Y018556D03*
X029155Y018656D03*
X027005Y018306D03*
X025705Y018306D03*
X026355Y017056D03*
X023255Y018656D03*
X022105Y018656D03*
X022805Y020406D03*
X023605Y019806D03*
X022055Y022206D03*
X019955Y018306D03*
X018805Y018356D03*
X019355Y017056D03*
X015255Y016356D03*
X015055Y018656D03*
X011805Y017706D03*
X010955Y018056D03*
X010855Y015856D03*
X012855Y014906D03*
X008105Y016356D03*
X005905Y017706D03*
X005055Y017706D03*
X005305Y015856D03*
X005655Y015006D03*
X007905Y018656D03*
X004555Y035106D03*
X004505Y036356D03*
X007805Y039856D03*
X007805Y041256D03*
X011405Y044906D03*
X012405Y044906D03*
X014355Y045756D03*
X019255Y044306D03*
X016555Y039056D03*
X012555Y040656D03*
X010405Y037356D03*
X026505Y049306D03*
X029905Y049256D03*
X030655Y049256D03*
X036455Y049256D03*
X036105Y047506D03*
X033055Y042506D03*
X028905Y022206D03*
X038705Y013156D03*
X039705Y013156D03*
X040355Y006156D03*
X038355Y006156D03*
X036855Y006156D03*
X036255Y006156D03*
X054505Y019356D03*
X065955Y019856D03*
X065955Y018256D03*
X065955Y016656D03*
X065955Y015056D03*
X065955Y013456D03*
X065955Y011856D03*
X065955Y010256D03*
X065955Y008606D03*
D38*
X042705Y010456D03*
X036805Y023356D03*
X036805Y024756D03*
X038055Y025606D03*
X027805Y033756D03*
X027805Y034756D03*
X027805Y035756D03*
X027805Y036756D03*
X027805Y037856D03*
X027805Y038756D03*
X027805Y039756D03*
X017905Y025556D03*
X061955Y042606D03*
D39*
X002605Y004056D03*
X024255Y030456D03*
X002605Y056856D03*
X066505Y056856D03*
X066505Y004056D03*
D40*
X036155Y030106D03*
D41*
X042005Y030456D03*
X042805Y030456D03*
X042805Y029656D03*
X042005Y029656D03*
D42*
X057705Y048156D03*
M02*
