G75*
G70*
%OFA0B0*%
%FSAX24Y24*%
%IPPOS*%
%LPD*%
%AMOC8*
5,1,8,0,0,1.08239X$1,22.5*
*%
%ADD10R,0.8100X0.6300*%
%ADD11R,1.0500X0.5100*%
%ADD12C,0.0730*%
%ADD13C,0.0809*%
%ADD14R,0.1045X0.1202*%
%ADD15R,0.1045X0.3604*%
%ADD16R,0.0400X0.0860*%
%ADD17R,0.0525X0.0513*%
%ADD18R,0.0533X0.0494*%
%ADD19R,0.0810X0.0730*%
%ADD20R,0.0513X0.0525*%
%ADD21R,0.0809X0.0946*%
%ADD22R,0.0800X0.0800*%
%ADD23R,0.0730X0.0810*%
%ADD24OC8,0.0700*%
%ADD25O,0.0700X0.1300*%
%ADD26R,0.0400X0.0960*%
%ADD27O,0.1300X0.0700*%
%ADD28C,0.2100*%
%ADD29R,0.0660X0.0196*%
%ADD30R,0.0196X0.0660*%
%ADD31R,0.0494X0.0533*%
%ADD32C,0.0544*%
%ADD33R,0.0730X0.0612*%
%ADD34R,0.0612X0.0730*%
%ADD35R,0.0230X0.0691*%
%ADD36R,0.0691X0.0230*%
%ADD37O,0.1140X0.0620*%
%ADD38R,0.0336X0.0966*%
%ADD39C,0.0769*%
%ADD40R,0.1202X0.0966*%
%ADD41R,0.1202X0.1202*%
%ADD42R,0.1202X0.1124*%
%ADD43R,0.0691X0.0612*%
%ADD44R,0.0612X0.0691*%
%ADD45C,0.0540*%
%ADD46C,0.1104*%
%ADD47C,0.1524*%
%ADD48R,0.0376X0.0631*%
%ADD49OC8,0.0760*%
%ADD50R,0.0887X0.0691*%
%ADD51R,0.0691X0.0887*%
%ADD52O,0.1870X0.0985*%
%ADD53O,0.0800X0.1500*%
%ADD54O,0.0660X0.1220*%
%ADD55O,0.1220X0.0660*%
%ADD56C,0.0420*%
%ADD57C,0.0500*%
%ADD58C,0.0580*%
%ADD59C,0.3600*%
%ADD60C,0.0410*%
%ADD61C,0.0700*%
%ADD62C,0.5100*%
D10*
X059005Y025056D03*
D11*
X059205Y032356D03*
D12*
X051505Y056856D03*
D13*
X051505Y055084D03*
D14*
X049261Y056856D03*
X049261Y054454D03*
D15*
X053749Y055655D03*
D16*
X058405Y035496D03*
X058905Y035496D03*
X059405Y035496D03*
X059905Y035496D03*
X060405Y035496D03*
D17*
X047705Y035751D03*
X047705Y035062D03*
X044205Y027301D03*
X044205Y026612D03*
X042005Y026951D03*
X042005Y026262D03*
X029855Y019801D03*
X029855Y019112D03*
X022805Y019112D03*
X022805Y019801D03*
X011805Y019051D03*
X011805Y018362D03*
X004505Y018362D03*
X004505Y019051D03*
X011405Y043362D03*
X011405Y044051D03*
X012405Y044051D03*
X012405Y043362D03*
X025905Y048612D03*
X025905Y049301D03*
X036905Y046601D03*
X036905Y045912D03*
D18*
X031355Y041841D03*
X031355Y041171D03*
X030155Y041171D03*
X030155Y041841D03*
X028605Y038391D03*
X028605Y037721D03*
X028605Y035391D03*
X028605Y034721D03*
X024155Y038271D03*
X024155Y038941D03*
X023255Y038941D03*
X023255Y038271D03*
X016555Y041671D03*
X016555Y042341D03*
X014355Y046571D03*
X014355Y047241D03*
X012405Y047241D03*
X012405Y046571D03*
X011355Y046571D03*
X011355Y047241D03*
X051105Y047041D03*
X051105Y046371D03*
X057605Y042391D03*
X057605Y041721D03*
X059355Y042721D03*
X059355Y043391D03*
X057605Y039791D03*
X057605Y039121D03*
X056305Y039121D03*
X056305Y039791D03*
X061405Y036291D03*
X061405Y035621D03*
X041355Y007691D03*
X041355Y007021D03*
X040355Y007021D03*
X040355Y007691D03*
X039355Y007691D03*
X039355Y007021D03*
X038355Y007021D03*
X038355Y007691D03*
X037355Y007691D03*
X037355Y007021D03*
X036355Y007021D03*
X036355Y007691D03*
X035355Y007691D03*
X035355Y007021D03*
X046355Y005391D03*
X047355Y005391D03*
X047355Y004721D03*
X046355Y004721D03*
D19*
X046855Y034746D03*
X046855Y035866D03*
X056305Y041196D03*
X056305Y042316D03*
X024905Y048596D03*
X024905Y049716D03*
D20*
X031260Y049256D03*
X031949Y049256D03*
X032960Y049256D03*
X033649Y049256D03*
X034960Y049256D03*
X035649Y049256D03*
X034349Y042056D03*
X033660Y042056D03*
X034860Y033956D03*
X035549Y033956D03*
X035549Y033056D03*
X034860Y033056D03*
X018449Y044506D03*
X017760Y044506D03*
X015749Y039056D03*
X015060Y039056D03*
X009299Y039856D03*
X008610Y039856D03*
X008610Y041256D03*
X009299Y041256D03*
D21*
X055155Y038887D03*
X055155Y037725D03*
D22*
X063605Y047156D03*
X063605Y048156D03*
X063605Y049156D03*
X064005Y026056D03*
X064005Y025056D03*
X064005Y024056D03*
D23*
X064845Y020656D03*
X065965Y020656D03*
X065965Y019056D03*
X064845Y019056D03*
X064845Y017456D03*
X065965Y017456D03*
X065965Y015856D03*
X064845Y015856D03*
X064845Y014256D03*
X065965Y014256D03*
X065965Y012656D03*
X064845Y012656D03*
X064845Y011056D03*
X065965Y011056D03*
X065965Y009456D03*
X064845Y009456D03*
X017665Y043256D03*
X016545Y043256D03*
D24*
X015405Y043256D03*
X015205Y037456D03*
X016205Y037456D03*
X017205Y037456D03*
X017205Y036456D03*
X016205Y036456D03*
X015205Y036456D03*
X009305Y037356D03*
X025855Y037256D03*
X026855Y037256D03*
X026855Y036256D03*
X026855Y035256D03*
X025855Y035256D03*
X025855Y036256D03*
X025855Y034256D03*
X026855Y034256D03*
X026855Y033256D03*
X025855Y033256D03*
X025855Y038256D03*
X026855Y038256D03*
X026855Y039256D03*
X025855Y039256D03*
X025855Y040256D03*
X026855Y040256D03*
X036005Y035456D03*
X037205Y043756D03*
X043805Y044256D03*
X044105Y046156D03*
X045105Y046156D03*
X046105Y046156D03*
X047105Y046156D03*
X048105Y046156D03*
X049105Y046156D03*
X050105Y046156D03*
X050105Y047156D03*
X049105Y047156D03*
X048105Y047156D03*
X047105Y047156D03*
X046105Y047156D03*
X045105Y047156D03*
X044105Y047156D03*
X043765Y053856D03*
X042685Y053856D03*
X041605Y053856D03*
X040525Y053856D03*
X039445Y053856D03*
X039985Y054856D03*
X041065Y054856D03*
X042145Y054856D03*
X043225Y054856D03*
X029725Y054856D03*
X028645Y054856D03*
X027565Y054856D03*
X026485Y054856D03*
X027025Y053856D03*
X028105Y053856D03*
X029185Y053856D03*
X030265Y053856D03*
X025945Y053856D03*
X045705Y034856D03*
X048905Y032106D03*
X052805Y028156D03*
X053805Y028156D03*
X053805Y027156D03*
X052805Y027156D03*
X052805Y026156D03*
X053805Y026156D03*
X053805Y025156D03*
X053805Y024156D03*
X052805Y024156D03*
X052805Y025156D03*
X052805Y023156D03*
X053805Y023156D03*
X053805Y022156D03*
X053805Y021156D03*
X052805Y021156D03*
X052805Y022156D03*
X052355Y010456D03*
X052355Y009456D03*
X051355Y009456D03*
X051355Y010456D03*
X050355Y010456D03*
X050355Y009456D03*
X049355Y009456D03*
X049355Y010456D03*
X048355Y010456D03*
X048355Y009456D03*
X047355Y009456D03*
X047355Y010456D03*
X046355Y010456D03*
X046355Y009456D03*
X045355Y009456D03*
X045355Y010456D03*
X044355Y010456D03*
X044355Y009456D03*
X041355Y009456D03*
X041355Y010456D03*
X040355Y010456D03*
X040355Y009456D03*
X039355Y009456D03*
X039355Y010456D03*
X038355Y010456D03*
X038355Y009456D03*
X037355Y009456D03*
X037355Y010456D03*
X036355Y010456D03*
X036355Y009456D03*
X035355Y009456D03*
X035355Y010456D03*
X053355Y010456D03*
X054355Y010456D03*
X054355Y009456D03*
X053355Y009456D03*
X055355Y009456D03*
X056355Y009456D03*
X057355Y009456D03*
X057355Y010456D03*
X056355Y010456D03*
X055355Y010456D03*
X058355Y010456D03*
X059355Y010456D03*
X059355Y009456D03*
X058355Y009456D03*
D25*
X048355Y007056D03*
X047355Y007056D03*
X046355Y007056D03*
X045355Y007056D03*
X044355Y007056D03*
X028255Y009256D03*
X027255Y009256D03*
X021205Y009256D03*
X020205Y009256D03*
X014255Y009256D03*
X013255Y009256D03*
X007105Y009256D03*
X006105Y009256D03*
X040205Y046156D03*
X041205Y046156D03*
X042205Y046156D03*
X014355Y050156D03*
X013355Y050156D03*
X012355Y050156D03*
X011355Y050156D03*
D26*
X030855Y047517D03*
X031355Y047517D03*
X031855Y047517D03*
X032355Y047517D03*
X032855Y047517D03*
X033355Y047517D03*
X033855Y047517D03*
X034355Y047517D03*
X034855Y047517D03*
X035355Y047517D03*
X035355Y043795D03*
X034855Y043795D03*
X034355Y043795D03*
X033855Y043795D03*
X033355Y043795D03*
X032855Y043795D03*
X032355Y043795D03*
X031855Y043795D03*
X031355Y043795D03*
X030855Y043795D03*
X055755Y018117D03*
X056255Y018117D03*
X056755Y018117D03*
X057255Y018117D03*
X057755Y018117D03*
X058255Y018117D03*
X058755Y018117D03*
X059255Y018117D03*
X059755Y018117D03*
X060255Y018117D03*
X060255Y014395D03*
X059755Y014395D03*
X059255Y014395D03*
X058755Y014395D03*
X058255Y014395D03*
X057755Y014395D03*
X057255Y014395D03*
X056755Y014395D03*
X056255Y014395D03*
X055755Y014395D03*
D27*
X037305Y037456D03*
X037305Y038456D03*
X034605Y038456D03*
X034605Y037456D03*
X029005Y043056D03*
X029005Y044056D03*
X029005Y047456D03*
X029005Y048456D03*
X018555Y039106D03*
X018555Y038106D03*
X019455Y026306D03*
X019455Y025306D03*
X019455Y024306D03*
X021955Y024306D03*
X021955Y025306D03*
X021955Y026306D03*
X026505Y026306D03*
X026505Y025306D03*
X026505Y024306D03*
X029005Y024306D03*
X029005Y025306D03*
X029005Y026306D03*
X015055Y026306D03*
X015055Y025306D03*
X015055Y024306D03*
X012505Y024306D03*
X012505Y025306D03*
X012505Y026306D03*
X007905Y026306D03*
X007905Y025306D03*
X007905Y024306D03*
X005355Y024306D03*
X005355Y025306D03*
X005355Y026306D03*
X004505Y037856D03*
X004505Y038856D03*
X004505Y039856D03*
D28*
X023175Y054356D03*
X033035Y054356D03*
X036675Y054356D03*
X046535Y054356D03*
D29*
X043776Y034197D03*
X043776Y034040D03*
X043776Y033882D03*
X043776Y033725D03*
X043776Y033567D03*
X043776Y033410D03*
X043776Y033252D03*
X043776Y033095D03*
X043776Y032937D03*
X043776Y032780D03*
X043776Y032622D03*
X043776Y032465D03*
X043776Y032307D03*
X043776Y032150D03*
X043776Y031992D03*
X043776Y031835D03*
X043776Y031677D03*
X043776Y031520D03*
X043776Y031362D03*
X043776Y031205D03*
X043776Y031047D03*
X043776Y030890D03*
X043776Y030732D03*
X043776Y030575D03*
X043776Y030417D03*
X043776Y030260D03*
X043776Y030103D03*
X043776Y029945D03*
X043776Y029788D03*
X043776Y029630D03*
X043776Y029473D03*
X043776Y029315D03*
X037634Y029473D03*
X037634Y029630D03*
X037634Y029788D03*
X037634Y029945D03*
X037634Y030103D03*
X037634Y030260D03*
X037634Y030417D03*
X037634Y030575D03*
X037634Y030732D03*
X037634Y030890D03*
X037634Y031047D03*
X037634Y031205D03*
X037634Y031362D03*
X037634Y031520D03*
X037634Y031677D03*
X037634Y031835D03*
X037634Y031992D03*
X037634Y032150D03*
X037634Y032307D03*
X037634Y032465D03*
X037634Y032622D03*
X037634Y032780D03*
X037634Y032937D03*
X037634Y033095D03*
X037634Y033252D03*
X037634Y033410D03*
X037634Y033567D03*
X037634Y033725D03*
X037634Y033882D03*
X037634Y034040D03*
X037634Y034197D03*
X037634Y029315D03*
D30*
X038264Y028685D03*
X038421Y028685D03*
X038579Y028685D03*
X038736Y028685D03*
X038894Y028685D03*
X039051Y028685D03*
X039209Y028685D03*
X039366Y028685D03*
X039524Y028685D03*
X039681Y028685D03*
X039839Y028685D03*
X039996Y028685D03*
X040154Y028685D03*
X040311Y028685D03*
X040469Y028685D03*
X040626Y028685D03*
X040783Y028685D03*
X040941Y028685D03*
X041098Y028685D03*
X041256Y028685D03*
X041413Y028685D03*
X041571Y028685D03*
X041728Y028685D03*
X041886Y028685D03*
X042043Y028685D03*
X042201Y028685D03*
X042358Y028685D03*
X042516Y028685D03*
X042673Y028685D03*
X042831Y028685D03*
X042988Y028685D03*
X043146Y028685D03*
X043146Y034827D03*
X042988Y034827D03*
X042831Y034827D03*
X042673Y034827D03*
X042516Y034827D03*
X042358Y034827D03*
X042201Y034827D03*
X042043Y034827D03*
X041886Y034827D03*
X041728Y034827D03*
X041571Y034827D03*
X041413Y034827D03*
X041256Y034827D03*
X041098Y034827D03*
X040941Y034827D03*
X040783Y034827D03*
X040626Y034827D03*
X040469Y034827D03*
X040311Y034827D03*
X040154Y034827D03*
X039996Y034827D03*
X039839Y034827D03*
X039681Y034827D03*
X039524Y034827D03*
X039366Y034827D03*
X039209Y034827D03*
X039051Y034827D03*
X038894Y034827D03*
X038736Y034827D03*
X038579Y034827D03*
X038421Y034827D03*
X038264Y034827D03*
D31*
X035539Y032106D03*
X034870Y032106D03*
X033689Y030756D03*
X033020Y030756D03*
X037020Y022406D03*
X037689Y022406D03*
X047270Y032756D03*
X047939Y032756D03*
X035939Y042056D03*
X035270Y042056D03*
X039870Y047656D03*
X040539Y047656D03*
X041970Y047656D03*
X042639Y047656D03*
X025939Y042456D03*
X025270Y042456D03*
X016339Y039856D03*
X015670Y039856D03*
X063070Y020656D03*
X063739Y020656D03*
X063739Y019056D03*
X063070Y019056D03*
X063070Y017456D03*
X063739Y017456D03*
X063739Y015856D03*
X063070Y015856D03*
X063070Y014256D03*
X063739Y014256D03*
X063739Y012656D03*
X063070Y012656D03*
X063070Y011056D03*
X063739Y011056D03*
X063739Y009456D03*
X063070Y009456D03*
D32*
X043361Y026606D03*
X042849Y026606D03*
D33*
X037455Y026762D03*
X037455Y027550D03*
X037305Y035312D03*
X037305Y036100D03*
X029855Y022200D03*
X029855Y021412D03*
X022805Y021412D03*
X022805Y022200D03*
X011805Y016650D03*
X011805Y015862D03*
X004505Y015862D03*
X004505Y016650D03*
D34*
X004548Y014306D03*
X003761Y014306D03*
X010911Y014306D03*
X011698Y014306D03*
X043461Y036356D03*
X044248Y036356D03*
D35*
X013387Y038663D03*
X013191Y038663D03*
X012994Y038663D03*
X012797Y038663D03*
X012600Y038663D03*
X012403Y038663D03*
X012206Y038663D03*
X012009Y038663D03*
X011813Y038663D03*
X011616Y038663D03*
X011419Y038663D03*
X011222Y038663D03*
X011419Y042049D03*
X011616Y042049D03*
X011813Y042049D03*
X012009Y042049D03*
X012206Y042049D03*
X012403Y042049D03*
X012600Y042049D03*
X012797Y042049D03*
X012994Y042049D03*
X013191Y042049D03*
X013387Y042049D03*
X011222Y042049D03*
D36*
X010612Y041439D03*
X010612Y041242D03*
X010612Y041045D03*
X010612Y040848D03*
X010612Y040651D03*
X010612Y040454D03*
X010612Y040258D03*
X010612Y040061D03*
X010612Y039864D03*
X010612Y039667D03*
X010612Y039470D03*
X010612Y039273D03*
X013998Y039470D03*
X013998Y039667D03*
X013998Y039864D03*
X013998Y040061D03*
X013998Y040258D03*
X013998Y040454D03*
X013998Y040651D03*
X013998Y040848D03*
X013998Y041045D03*
X013998Y041242D03*
X013998Y041439D03*
X013998Y039273D03*
D37*
X023005Y043856D03*
X023005Y044856D03*
X023005Y045856D03*
X023005Y046856D03*
X026005Y046856D03*
X026005Y045856D03*
X026005Y044856D03*
X026005Y043856D03*
D38*
X027005Y021280D03*
X027505Y021280D03*
X028005Y021280D03*
X028505Y021280D03*
X028505Y019232D03*
X028005Y019232D03*
X027505Y019232D03*
X027005Y019232D03*
X021455Y019232D03*
X020955Y019232D03*
X020455Y019232D03*
X019955Y019232D03*
X019955Y021280D03*
X020455Y021280D03*
X020955Y021280D03*
X021455Y021280D03*
X014505Y018680D03*
X014005Y018680D03*
X013505Y018680D03*
X013005Y018680D03*
X013005Y016632D03*
X013505Y016632D03*
X014005Y016632D03*
X014505Y016632D03*
X007355Y016632D03*
X006855Y016632D03*
X006355Y016632D03*
X005855Y016632D03*
X005855Y018680D03*
X006355Y018680D03*
X006855Y018680D03*
X007355Y018680D03*
D39*
X016555Y006190D03*
X016555Y003434D03*
X031355Y003434D03*
X031355Y006190D03*
D40*
X032811Y003001D03*
X018011Y003001D03*
D41*
X018011Y006662D03*
X032811Y006662D03*
D42*
X031059Y008277D03*
X016259Y008277D03*
D43*
X015855Y013621D03*
X015855Y014291D03*
X015855Y017621D03*
X015855Y018291D03*
X015855Y019971D03*
X015855Y020641D03*
X014305Y020641D03*
X014305Y019971D03*
X013205Y019971D03*
X013205Y020641D03*
X011805Y020641D03*
X011805Y019971D03*
X008705Y019971D03*
X008705Y020641D03*
X007205Y020641D03*
X007205Y019971D03*
X006005Y019971D03*
X006005Y020641D03*
X004505Y020641D03*
X004505Y019971D03*
X008705Y018291D03*
X008705Y017621D03*
X008705Y014291D03*
X008705Y013621D03*
X022805Y014191D03*
X022805Y015321D03*
X022805Y015991D03*
X022805Y017121D03*
X022805Y017791D03*
X022805Y013521D03*
X029855Y013521D03*
X029855Y014191D03*
X029855Y015321D03*
X029855Y015991D03*
X029855Y017121D03*
X029855Y017791D03*
X005255Y035121D03*
X005255Y035791D03*
X003805Y035791D03*
X003805Y035121D03*
D44*
X018070Y021706D03*
X018739Y021706D03*
X018739Y020256D03*
X018070Y020256D03*
X018070Y019056D03*
X018739Y019056D03*
X018689Y016256D03*
X018020Y016256D03*
X018020Y015056D03*
X018689Y015056D03*
X020370Y010856D03*
X021039Y010856D03*
X025020Y015056D03*
X025689Y015056D03*
X025689Y016256D03*
X025020Y016256D03*
X025020Y019056D03*
X025689Y019056D03*
X025689Y020256D03*
X025020Y020256D03*
X025020Y021706D03*
X025689Y021706D03*
X027420Y010856D03*
X028089Y010856D03*
X011689Y011856D03*
X011689Y013056D03*
X011020Y013056D03*
X011020Y011856D03*
X004539Y011856D03*
X004539Y013056D03*
X003870Y013056D03*
X003870Y011856D03*
D45*
X006105Y013056D03*
X007105Y012056D03*
X007105Y014056D03*
X013255Y013056D03*
X014255Y014056D03*
X014255Y012056D03*
X020205Y014656D03*
X021205Y015656D03*
X020205Y016656D03*
X027255Y016656D03*
X028255Y015656D03*
X027255Y014656D03*
D46*
X024305Y004956D03*
X008605Y004956D03*
D47*
X008605Y003184D03*
X010573Y004956D03*
X006636Y004956D03*
X022336Y004956D03*
X024305Y003184D03*
X026273Y004956D03*
D48*
X058631Y040636D03*
X059005Y040636D03*
X059379Y040636D03*
X059379Y041676D03*
X059005Y041676D03*
X058631Y041676D03*
D49*
X062005Y041456D03*
X064005Y041456D03*
X064005Y039456D03*
X062005Y039456D03*
D50*
X015955Y012447D03*
X015955Y011266D03*
X008805Y011266D03*
X008805Y012447D03*
D51*
X020114Y012256D03*
X021295Y012256D03*
X027164Y012256D03*
X028345Y012256D03*
D52*
X056805Y056906D03*
X062805Y056906D03*
D53*
X062805Y054156D03*
X058805Y054156D03*
D54*
X053855Y048156D03*
X052855Y048156D03*
X056005Y020056D03*
X057005Y020056D03*
D55*
X052105Y031456D03*
X052105Y032456D03*
D56*
X054405Y032656D03*
X055005Y032656D03*
X055605Y032656D03*
X056205Y032656D03*
X056805Y032656D03*
X057405Y032656D03*
X058005Y032656D03*
X058605Y032656D03*
X059205Y032656D03*
X059805Y032656D03*
X060405Y032656D03*
X061005Y032656D03*
X061605Y032656D03*
X062205Y032656D03*
X062805Y032656D03*
X063405Y032656D03*
X064005Y032656D03*
X064005Y032056D03*
X064005Y031456D03*
X064005Y030856D03*
X064005Y030256D03*
X063405Y030256D03*
X063405Y030856D03*
X063405Y031456D03*
X063405Y032056D03*
X062805Y032056D03*
X062805Y031456D03*
X062805Y030856D03*
X062805Y030256D03*
X062205Y030256D03*
X062205Y030856D03*
X062205Y031456D03*
X062205Y032056D03*
X061605Y032056D03*
X061605Y031456D03*
X061605Y030856D03*
X061605Y030256D03*
X061005Y030256D03*
X061005Y030856D03*
X061005Y031456D03*
X061005Y032056D03*
X060405Y032056D03*
X060405Y031456D03*
X060405Y030856D03*
X060405Y030256D03*
X059805Y030256D03*
X059805Y030856D03*
X059805Y031456D03*
X059805Y032056D03*
X059205Y032056D03*
X059205Y031456D03*
X059205Y030856D03*
X059205Y030256D03*
X058605Y030256D03*
X058605Y030856D03*
X058605Y031456D03*
X058605Y032056D03*
X058005Y032056D03*
X058005Y031456D03*
X058005Y030856D03*
X058005Y030256D03*
X057405Y030256D03*
X057405Y030856D03*
X057405Y031456D03*
X057405Y032056D03*
X056805Y032056D03*
X056805Y031456D03*
X056805Y030856D03*
X056805Y030256D03*
X056205Y030256D03*
X056205Y030856D03*
X056205Y031456D03*
X056205Y032056D03*
X055605Y032056D03*
X055605Y031456D03*
X055605Y030856D03*
X055605Y030256D03*
X055005Y030256D03*
X055005Y030856D03*
X055005Y031456D03*
X055005Y032056D03*
X054405Y032056D03*
X054405Y031456D03*
X054405Y030856D03*
X054405Y030256D03*
X055405Y027756D03*
X056005Y027756D03*
X056605Y027756D03*
X057205Y027756D03*
X057805Y027756D03*
X058405Y027756D03*
X059005Y027756D03*
X059605Y027756D03*
X060205Y027756D03*
X060805Y027756D03*
X061405Y027756D03*
X062005Y027756D03*
X062605Y027756D03*
X062605Y027156D03*
X062605Y026556D03*
X062605Y025956D03*
X062605Y025356D03*
X062605Y024756D03*
X062605Y024156D03*
X062605Y023556D03*
X062605Y022956D03*
X062605Y022356D03*
X062005Y022356D03*
X062005Y022956D03*
X062005Y023556D03*
X062005Y024156D03*
X062005Y024756D03*
X062005Y025356D03*
X062005Y025956D03*
X062005Y026556D03*
X062005Y027156D03*
X061405Y027156D03*
X061405Y026556D03*
X061405Y025956D03*
X061405Y025356D03*
X061405Y024756D03*
X061405Y024156D03*
X061405Y023556D03*
X061405Y022956D03*
X061405Y022356D03*
X060805Y022356D03*
X060205Y022356D03*
X060205Y022956D03*
X060805Y022956D03*
X060805Y023556D03*
X060205Y023556D03*
X060205Y024156D03*
X060805Y024156D03*
X060805Y024756D03*
X060205Y024756D03*
X060205Y025356D03*
X060805Y025356D03*
X060805Y025956D03*
X060205Y025956D03*
X060205Y026556D03*
X060805Y026556D03*
X060805Y027156D03*
X060205Y027156D03*
X059605Y027156D03*
X059605Y026556D03*
X059605Y025956D03*
X059605Y025356D03*
X059605Y024756D03*
X059605Y024156D03*
X059605Y023556D03*
X059605Y022956D03*
X059605Y022356D03*
X059005Y022356D03*
X059005Y022956D03*
X059005Y023556D03*
X059005Y024156D03*
X059005Y024756D03*
X059005Y025356D03*
X059005Y025956D03*
X059005Y026556D03*
X059005Y027156D03*
X058405Y027156D03*
X058405Y026556D03*
X058405Y025956D03*
X058405Y025356D03*
X058405Y024756D03*
X058405Y024156D03*
X058405Y023556D03*
X058405Y022956D03*
X058405Y022356D03*
X057805Y022356D03*
X057805Y022956D03*
X057805Y023556D03*
X057805Y024156D03*
X057805Y024756D03*
X057805Y025356D03*
X057805Y025956D03*
X057805Y026556D03*
X057805Y027156D03*
X057205Y027156D03*
X057205Y026556D03*
X057205Y025956D03*
X057205Y025356D03*
X057205Y024756D03*
X057205Y024156D03*
X057205Y023556D03*
X057205Y022956D03*
X057205Y022356D03*
X056605Y022356D03*
X056005Y022356D03*
X056005Y022956D03*
X056605Y022956D03*
X056605Y023556D03*
X056005Y023556D03*
X056005Y024156D03*
X056605Y024156D03*
X056605Y024756D03*
X056005Y024756D03*
X056005Y025356D03*
X056605Y025356D03*
X056605Y025956D03*
X056005Y025956D03*
X056005Y026556D03*
X056605Y026556D03*
X056605Y027156D03*
X056005Y027156D03*
X055405Y027156D03*
X055405Y026556D03*
X055405Y025956D03*
X055405Y025356D03*
X055405Y024756D03*
X055405Y024156D03*
X055405Y023556D03*
X055405Y022956D03*
X055405Y022356D03*
X056255Y019106D03*
X060255Y015406D03*
X055755Y013356D03*
X054855Y011156D03*
X049355Y020056D03*
X048505Y020456D03*
X042355Y024906D03*
X041905Y024906D03*
X041105Y027056D03*
X040905Y027506D03*
X041705Y027506D03*
X042155Y027506D03*
X039605Y029456D03*
X038405Y030056D03*
X038405Y031256D03*
X036555Y032106D03*
X036105Y031956D03*
X036155Y032406D03*
X034205Y032106D03*
X034205Y031656D03*
X033605Y032006D03*
X032955Y032506D03*
X032355Y032956D03*
X032055Y031956D03*
X032055Y030906D03*
X032055Y029956D03*
X032055Y029056D03*
X032055Y028356D03*
X032355Y027506D03*
X032955Y027506D03*
X033605Y027506D03*
X034205Y027506D03*
X035305Y028556D03*
X036655Y029256D03*
X039205Y027606D03*
X043005Y031856D03*
X043005Y033156D03*
X042205Y034056D03*
X041205Y034056D03*
X040405Y034056D03*
X039955Y036056D03*
X039455Y036056D03*
X041105Y036056D03*
X042055Y036706D03*
X042055Y037156D03*
X039055Y038756D03*
X037955Y040056D03*
X039205Y041306D03*
X034355Y042956D03*
X033605Y041256D03*
X032855Y041356D03*
X032355Y041656D03*
X031905Y041656D03*
X030755Y041656D03*
X030755Y040306D03*
X031905Y040306D03*
X033605Y039956D03*
X032355Y042506D03*
X031755Y045006D03*
X024855Y039906D03*
X024155Y039406D03*
X023255Y039456D03*
X024155Y041006D03*
X023255Y041906D03*
X020605Y040256D03*
X020005Y039856D03*
X016055Y041656D03*
X015855Y040956D03*
X013405Y039706D03*
X015155Y038506D03*
X014605Y037956D03*
X013805Y037856D03*
X013805Y036656D03*
X012055Y037306D03*
X011205Y039856D03*
X011605Y041456D03*
X012405Y041456D03*
X012705Y042906D03*
X011905Y042906D03*
X013205Y043306D03*
X009355Y040556D03*
X008905Y040756D03*
X008405Y039356D03*
X010755Y022206D03*
X019955Y022256D03*
X027005Y022256D03*
X028455Y017256D03*
X034705Y018706D03*
X034705Y019606D03*
X034205Y030756D03*
X034205Y033056D03*
X034205Y033956D03*
X036555Y034356D03*
X044405Y034006D03*
X046255Y032806D03*
X045205Y031956D03*
X045205Y030456D03*
X054405Y033256D03*
X055005Y033256D03*
X055605Y033256D03*
X056205Y033256D03*
X056805Y033256D03*
X057405Y033256D03*
X058005Y033256D03*
X058605Y033256D03*
X059205Y033256D03*
X059805Y033256D03*
X060405Y033256D03*
X061005Y033256D03*
X061605Y033256D03*
X062205Y033256D03*
X062805Y033256D03*
X063405Y033256D03*
X064005Y033256D03*
X064005Y033856D03*
X064005Y034456D03*
X063405Y034456D03*
X063405Y033856D03*
X062805Y033856D03*
X062805Y034456D03*
X062205Y034456D03*
X062205Y033856D03*
X061605Y033856D03*
X061605Y034456D03*
X061005Y034456D03*
X061005Y033856D03*
X060405Y033856D03*
X060405Y034456D03*
X059805Y034456D03*
X059805Y033856D03*
X059205Y033856D03*
X059205Y034456D03*
X058605Y034456D03*
X058605Y033856D03*
X058005Y033856D03*
X058005Y034456D03*
X057405Y034456D03*
X057405Y033856D03*
X056805Y033856D03*
X056805Y034456D03*
X056205Y034456D03*
X056205Y033856D03*
X055605Y033856D03*
X055605Y034456D03*
X055005Y034456D03*
X055005Y033856D03*
X054405Y033856D03*
X054405Y034456D03*
X058555Y042506D03*
X054055Y045956D03*
X051105Y047806D03*
X051005Y048956D03*
X048005Y044906D03*
X041255Y047656D03*
X041255Y051256D03*
D57*
X044405Y049506D03*
X049505Y048256D03*
X049205Y042156D03*
X055155Y039906D03*
X055705Y036156D03*
X059405Y037856D03*
X059905Y037856D03*
X059905Y038406D03*
X059405Y038406D03*
X057605Y043156D03*
X056305Y043206D03*
X047705Y034306D03*
X044355Y037256D03*
X043555Y027506D03*
X043555Y025656D03*
X041105Y026556D03*
X036105Y021156D03*
X030705Y019806D03*
X029855Y020356D03*
X030405Y018556D03*
X029155Y018656D03*
X027005Y018306D03*
X025705Y018306D03*
X026355Y017056D03*
X023255Y018656D03*
X022105Y018656D03*
X022805Y020406D03*
X023605Y019806D03*
X022055Y022206D03*
X019955Y018306D03*
X018805Y018356D03*
X019355Y017056D03*
X015255Y016356D03*
X015055Y018656D03*
X011805Y017706D03*
X010955Y018056D03*
X010855Y015856D03*
X012855Y014906D03*
X008105Y016356D03*
X005905Y017706D03*
X005055Y017706D03*
X005305Y015856D03*
X005655Y015006D03*
X007905Y018656D03*
X004555Y035106D03*
X004505Y036356D03*
X007805Y039856D03*
X007805Y041256D03*
X011405Y044906D03*
X012405Y044906D03*
X014355Y045756D03*
X019255Y044306D03*
X016555Y039056D03*
X012555Y040656D03*
X010405Y037356D03*
X026505Y049306D03*
X029905Y049256D03*
X030655Y049256D03*
X036455Y049256D03*
X036105Y047506D03*
X033055Y042506D03*
X028905Y022206D03*
X038705Y013156D03*
X039705Y013156D03*
X040355Y006156D03*
X038355Y006156D03*
X036855Y006156D03*
X036255Y006156D03*
X054505Y019356D03*
X065955Y019856D03*
X065955Y018256D03*
X065955Y016656D03*
X065955Y015056D03*
X065955Y013456D03*
X065955Y011856D03*
X065955Y010256D03*
X065955Y008606D03*
D58*
X042705Y010456D03*
X036805Y023356D03*
X036805Y024756D03*
X038055Y025606D03*
X027805Y033756D03*
X027805Y034756D03*
X027805Y035756D03*
X027805Y036756D03*
X027805Y037856D03*
X027805Y038756D03*
X027805Y039756D03*
X017905Y025556D03*
X061955Y042606D03*
D59*
X002605Y004056D03*
X024255Y030456D03*
X002605Y056856D03*
X066505Y056856D03*
X066505Y004056D03*
D60*
X036155Y030106D03*
D61*
X042005Y030456D03*
X042805Y030456D03*
X042805Y029656D03*
X042005Y029656D03*
D62*
X057705Y048156D03*
M02*
